<?xml version="1.0" encoding="utf-8"?>
<!-- Generator: Adobe Illustrator 16.0.0, SVG Export Plug-In . SVG Version: 6.00 Build 0)  -->
<!DOCTYPE svg PUBLIC "-//W3C//DTD SVG 1.1//EN" "http://www.w3.org/Graphics/SVG/1.1/DTD/svg11.dtd">
<svg version="1.1" id="图层_1" xmlns="http://www.w3.org/2000/svg" xmlns:xlink="http://www.w3.org/1999/xlink" x="0px" y="0px"
	 width="112.25px" height="26.625px" viewBox="0 0 112.25 26.625" enable-background="new 0 0 112.25 26.625" xml:space="preserve">
<g id="图层_2">
	<g>
		<path fill="#656565" d="M37.25,15.994c0,0.529-0.135,0.998-0.402,1.408c-0.268,0.41-0.656,0.73-1.161,0.957
			c-0.504,0.227-1.098,0.34-1.778,0.34c-0.567,0-1.043-0.039-1.428-0.119c-0.385-0.076-0.784-0.217-1.2-0.416v-2.053
			c0.439,0.225,0.896,0.4,1.37,0.529c0.474,0.125,0.909,0.188,1.306,0.188c0.342,0,0.593-0.059,0.752-0.178
			c0.159-0.119,0.239-0.271,0.239-0.457c0-0.117-0.033-0.219-0.095-0.307c-0.065-0.086-0.167-0.176-0.31-0.264
			c-0.141-0.092-0.52-0.273-1.133-0.549c-0.555-0.252-0.972-0.498-1.25-0.734c-0.278-0.238-0.484-0.51-0.618-0.815
			c-0.134-0.308-0.202-0.671-0.202-1.09c0-0.784,0.285-1.396,0.857-1.836c0.571-0.439,1.356-0.659,2.355-0.659
			c0.882,0,1.781,0.205,2.698,0.612l-0.705,1.778c-0.797-0.364-1.485-0.548-2.063-0.548c-0.299,0-0.516,0.053-0.653,0.157
			c-0.136,0.106-0.204,0.236-0.204,0.392c0,0.167,0.086,0.317,0.259,0.45c0.173,0.132,0.641,0.373,1.408,0.721
			c0.734,0.331,1.244,0.685,1.529,1.065C37.107,14.941,37.25,15.418,37.25,15.994z"/>
		<path fill="#656565" d="M43.795,18.584l-0.419-1.6h-2.768l-0.431,1.6h-2.529l2.78-8.557H43.5l2.814,8.557H43.795L43.795,18.584z
			 M42.898,15.098l-0.367-1.399c-0.085-0.312-0.19-0.714-0.311-1.207c-0.122-0.494-0.204-0.848-0.242-1.061
			c-0.035,0.199-0.104,0.524-0.207,0.978c-0.104,0.455-0.331,1.35-0.685,2.688H42.898L42.898,15.098z"/>
		<path fill="#656565" d="M55.347,18.584h-3.018l-3.114-6.006h-0.052c0.074,0.944,0.112,1.666,0.112,2.162v3.844h-2.04V10.06h3.006
			l3.1,5.922h0.036c-0.056-0.859-0.082-1.549-0.082-2.068v-3.853h2.052L55.347,18.584L55.347,18.584z"/>
		<path fill="#656565" d="M60.232,13.219l1.47-3.158h2.493l-2.804,5.195v3.328h-2.317v-3.26l-2.805-5.263h2.506L60.232,13.219z"/>
		<path fill="#656565" d="M73.089,14.311c0,1.434-0.35,2.523-1.055,3.271c-0.702,0.746-1.732,1.117-3.089,1.117
			c-1.337,0-2.36-0.375-3.076-1.125c-0.712-0.748-1.067-1.842-1.067-3.275c0-1.418,0.355-2.501,1.064-3.25
			c0.705-0.748,1.739-1.122,3.092-1.122c1.355,0,2.383,0.372,3.082,1.113C72.742,11.782,73.089,12.873,73.089,14.311z
			 M67.226,14.311c0,1.646,0.572,2.471,1.72,2.471c0.584,0,1.014-0.201,1.295-0.6c0.284-0.4,0.425-1.025,0.425-1.873
			c0-0.85-0.143-1.479-0.43-1.886c-0.286-0.406-0.712-0.608-1.278-0.608C67.804,11.816,67.226,12.647,67.226,14.311z"/>
		<path fill="#656565" d="M81.526,11.828c-0.55,0-0.978,0.224-1.282,0.673c-0.308,0.449-0.466,1.067-0.466,1.856
			c0,1.641,0.624,2.461,1.874,2.461c0.376,0,0.741-0.053,1.095-0.158c0.354-0.104,0.71-0.232,1.067-0.379v1.947
			c-0.709,0.316-1.516,0.471-2.415,0.471c-1.289,0-2.272-0.371-2.957-1.117c-0.688-0.746-1.028-1.826-1.028-3.232
			c0-0.883,0.164-1.658,0.498-2.326c0.334-0.668,0.81-1.182,1.433-1.542c0.623-0.359,1.356-0.539,2.199-0.539
			c0.92,0,1.802,0.201,2.642,0.6l-0.704,1.813c-0.316-0.147-0.629-0.272-0.945-0.374C82.225,11.877,81.886,11.828,81.526,11.828z"/>
		<path fill="#656565" d="M90.704,18.584l-0.42-1.6h-2.771l-0.431,1.6h-2.528l2.778-8.558h3.072l2.814,8.558H90.704z M89.806,15.098
			l-0.367-1.399c-0.085-0.312-0.19-0.714-0.312-1.207c-0.124-0.494-0.203-0.848-0.242-1.061c-0.035,0.199-0.105,0.524-0.207,0.978
			c-0.101,0.455-0.332,1.35-0.686,2.688H89.806L89.806,15.098z"/>
		<path fill="#656565" d="M96.447,15.484v3.1h-2.304V10.06h2.793c2.315,0,3.474,0.839,3.474,2.518c0,0.987-0.481,1.75-1.446,2.291
			l2.48,3.713h-2.61l-1.805-3.102h-0.584v0.004H96.447z M96.447,13.751h0.429c0.804,0,1.205-0.356,1.205-1.067
			c0-0.587-0.395-0.88-1.184-0.88h-0.454L96.447,13.751L96.447,13.751z"/>
		<path fill="#656565" d="M107.28,18.584h-5.059V10.06h5.059v1.848h-2.757v1.34h2.551v1.849h-2.551v1.605h2.757V18.584
			L107.28,18.584z"/>
	</g>
</g>
<g id="图层_1_1_">
	<g>
		<g>
			<g>
				<g>
					<defs>
						<path id="SVGID_1_" d="M0.802,8.143c1.516-5.094,6.235-8.81,11.823-8.81c6.812,0,12.333,5.522,12.333,12.333
							c0,6.813-5.521,12.335-12.333,12.335c-6.002,0-11.002-4.287-12.107-9.967"/>
					</defs>
					<clipPath id="SVGID_2_">
						<use xlink:href="#SVGID_1_"  overflow="visible"/>
					</clipPath>
					<path clip-path="url(#SVGID_2_)" fill="none" stroke="#FFFFFF" stroke-width="2" stroke-miterlimit="10" d="M26.487,4.017
						c0.241,1.247,0.406,2.532,0.476,3.856c0.753,14.377-11.021,28.9-26.024,28.9c-1.221,0-2.428-0.075-3.618-0.213
						C0.228,47.904,10.52,56.29,22.771,56.29c14.509,0,26.271-11.763,26.271-26.271C49.042,16.771,39.234,5.822,26.487,4.017z"/>
				</g>
			</g>
		</g>
	</g>
</g>
<circle fill="#FFFFFF" cx="13.98" cy="13.761" r="12.725"/>
<g>
	<g>
		<g>
			<defs>
				<ellipse id="SVGID_3_" cx="25.04" cy="37.96" rx="28.708" ry="28.772"/>
			</defs>
			<clipPath id="SVGID_4_">
				<use xlink:href="#SVGID_3_"  overflow="visible"/>
			</clipPath>
			<circle clip-path="url(#SVGID_4_)" fill="#FF9934" cx="13.98" cy="13.761" r="12.725"/>
		</g>
	</g>
	<g>
		<g>
			<defs>
				<ellipse id="SVGID_5_" cx="25.04" cy="37.96" rx="28.708" ry="28.772"/>
			</defs>
			<clipPath id="SVGID_6_">
				<use xlink:href="#SVGID_5_"  overflow="visible"/>
			</clipPath>
			<g transform="matrix(1 0 0 1 2.069878e-007 -1.245951e-008)" clip-path="url(#SVGID_6_)">
				
					<image overflow="visible" enable-background="new    " width="800" height="801" xlink:href="G:\工作\SANYO CARE\素材\logo-s.jpg"  transform="matrix(0.0321 0 0 0.0321 -43.1382 1.6021)">
				</image>
			</g>
		</g>
	</g>
</g>
<path fill="#FFE471" d="M23.5,5.318c-2.332-2.627-5.731-4.284-9.52-4.284c-7.028,0-12.725,5.697-12.725,12.727
	c0,0.691,0.057,1.374,0.164,2.037C6.83,9.597,14.693,5.601,23.5,5.318z"/>
</svg>
