<svg width="180" height="32" xmlns="http://www.w3.org/2000/svg">
 <g id="Layer_1">
  <title>Layer 1</title>
  <g stroke="null">
   <path stroke="null" p-id="3045" fill-opacity="0" fill="#8A8A8A" d="m0.82627,-1.22657l31.71032,0l0,31.71032l-31.71032,0l0,-31.71032z"/>
   <path stroke="null" p-id="3046" fill="#FE8419" d="m19.12577,3.46392l-0.19819,0c-0.52851,0 -1.05701,0.33032 -1.18914,0.85882c-0.06606,0.26425 0,0.52851 0.13213,0.79276c0.19819,0.26425 0.39638,0.39638 0.72669,0.46244c2.37827,0.46244 4.4923,1.71764 5.81356,3.63347c1.32126,1.91583 1.84977,4.16198 1.32126,6.34206c-0.06606,0.26425 0,0.52851 0.13213,0.79276c0.19819,0.26425 0.39638,0.39638 0.72669,0.46244l0.19819,0c0.26425,0 0.46244,-0.06606 0.66063,-0.19819c0.26425,-0.13213 0.46244,-0.39638 0.46244,-0.66063c1.38733,-5.68143 -2.57646,-11.2968 -8.7864,-12.48594zm2.44434,16.97824c0.06606,0 1.65158,0.7267 2.97284,1.65158c0.46244,0.33032 1.32126,0.92488 1.38733,1.78371c0.06606,0.52851 -0.19819,1.12307 -0.79276,1.78371c-0.13213,0.19819 -1.45339,1.65158 -3.89773,1.91583c-0.66063,0.06606 -1.32126,0.06606 -2.04796,-0.06606s-1.51945,-0.33032 -2.24615,-0.66063c-2.97284,-1.18914 -5.35112,-2.84072 -7.79545,-5.48324c-4.09592,-4.42623 -4.69049,-8.65428 -4.75655,-9.44703c-0.46244,-3.69954 2.70859,-5.54931 3.03891,-5.7475c0.46244,-0.26425 0.92488,-0.46244 1.38733,-0.52851l0.59457,0c0.39638,0.06606 0.92488,0.26425 1.32126,0.92488c0.59457,0.85882 1.18914,2.11402 1.65158,3.50135c0.46244,1.38733 -0.33032,1.91583 -1.12307,2.44434l-0.06606,0s-1.45339,0.79276 -1.65158,0.92488c-0.26425,0.13213 -0.33032,0.39638 -0.19819,0.66063c0.79276,1.58552 1.9819,3.2371 3.30316,4.75655c1.32126,1.45339 2.84072,2.77465 4.36017,3.7656c0.13213,0.06606 0.26425,0.13213 0.39638,0.06606l0.06606,0c0.13213,0 0.26425,-0.13213 0.33032,-0.26425c0.19819,-0.33032 0.52851,-0.7267 0.85882,-1.12307c0.59457,-0.72669 1.18914,-1.05701 1.84977,-1.12307l0.46244,0c0.06606,0.06606 0.33032,0.13213 0.59457,0.26425zm-5.28505,-8.32396c-0.26425,-0.06606 -0.52851,-0.19819 -0.72669,-0.46244c-0.19819,-0.26425 -0.19819,-0.52851 -0.13213,-0.79276c0.13213,-0.52851 0.59457,-0.85882 1.18914,-0.85882l0.19819,0c2.64253,0.52851 4.36017,2.90678 3.83166,5.35112c-0.06606,0.26425 -0.26425,0.52851 -0.46244,0.66063c-0.19819,0.13213 -0.46244,0.19819 -0.66063,0.19819l-0.19819,0c-0.26425,-0.06606 -0.52851,-0.19819 -0.7267,-0.46244c-0.26425,-0.26425 -0.33032,-0.52851 -0.26425,-0.79276c0.13213,-0.66063 0,-1.2552 -0.39638,-1.78371c-0.33032,-0.59457 -0.92488,-0.99095 -1.65158,-1.05701zm1.18914,-3.30316c-0.59457,-0.13213 -0.99095,-0.66063 -0.85882,-1.2552c0.13213,-0.52851 0.59457,-0.85882 1.18914,-0.85882l0.19819,0c2.11402,0.39638 3.96379,1.58552 5.15293,3.2371c1.18914,1.71764 1.65158,3.69954 1.18914,5.68143c-0.06606,0.26425 -0.26425,0.52851 -0.46244,0.66063c-0.19819,0.13213 -0.46244,0.19819 -0.66063,0.19819l-0.19819,0c-0.59457,-0.13213 -0.99095,-0.66063 -0.85882,-1.2552c0.33032,-1.45339 0,-2.90678 -0.85882,-4.09592c-0.92488,-1.18914 -2.24615,-2.04796 -3.83166,-2.31221z"/>
  </g>
  <text font-weight="bold" style="cursor: move;" xml:space="preserve" text-anchor="start" font-family="Noto Sans JP" font-size="18" id="svg_3" y="23.09904" x="41.92904" stroke-width="0" stroke="#000" fill="#fe8419">0434 716 232</text>
 </g>

</svg>